<svg xmlns="http://www.w3.org/2000/svg" width="720" height="428" viewBox="0 0 720 428">
  <rect width="720" height="428" fill="#ffffff"/>
  <text x="360" y="22" text-anchor="middle" font-family="Arial,sans-serif" font-size="14" font-weight="bold" fill="#1a1a1a">Bottleneck Heatmap: Invoice Processing (After: AI-Augmented)</text>
  <text x="250" y="50" text-anchor="middle" font-family="Arial,sans-serif" font-size="10" font-weight="bold" fill="#333">Overall</text>
  <text x="350" y="50" text-anchor="middle" font-family="Arial,sans-serif" font-size="10" font-weight="bold" fill="#333">Duration</text>
  <text x="450" y="50" text-anchor="middle" font-family="Arial,sans-serif" font-size="10" font-weight="bold" fill="#333">Wait</text>
  <text x="550" y="50" text-anchor="middle" font-family="Arial,sans-serif" font-size="10" font-weight="bold" fill="#333">Failure</text>
  <text x="650" y="50" text-anchor="middle" font-family="Arial,sans-serif" font-size="10" font-weight="bold" fill="#333">Escalation</text>
  <text x="194" y="80" text-anchor="end" font-family="Arial,sans-serif" font-size="10" fill="#1a1a1a">Exception: Mismatched Amount</text>
  <rect x="202" y="62" width="96" height="28" fill="#f0c040" rx="3"/>
  <text x="250" y="80" text-anchor="middle" font-family="Arial,sans-serif" font-size="10" fill="#1a1a1a">50%</text>
  <rect x="302" y="62" width="96" height="28" fill="#b22222" rx="3"/>
  <text x="350" y="80" text-anchor="middle" font-family="Arial,sans-serif" font-size="10" fill="#1a1a1a">100%</text>
  <rect x="402" y="62" width="96" height="28" fill="#d4edda" rx="3"/>
  <text x="450" y="80" text-anchor="middle" font-family="Arial,sans-serif" font-size="10" fill="#1a1a1a">0%</text>
  <rect x="502" y="62" width="96" height="28" fill="#d4edda" rx="3"/>
  <text x="550" y="80" text-anchor="middle" font-family="Arial,sans-serif" font-size="10" fill="#1a1a1a">0%</text>
  <rect x="602" y="62" width="96" height="28" fill="#b22222" rx="3"/>
  <text x="650" y="80" text-anchor="middle" font-family="Arial,sans-serif" font-size="10" fill="#1a1a1a">100%</text>
  <text x="194" y="112" text-anchor="end" font-family="Arial,sans-serif" font-size="10" fill="#1a1a1a">ERP Entry</text>
  <rect x="202" y="94" width="96" height="28" fill="#70ad47" rx="3"/>
  <text x="250" y="112" text-anchor="middle" font-family="Arial,sans-serif" font-size="10" fill="#1a1a1a">40%</text>
  <rect x="302" y="94" width="96" height="28" fill="#d4edda" rx="3"/>
  <text x="350" y="112" text-anchor="middle" font-family="Arial,sans-serif" font-size="10" fill="#1a1a1a">11%</text>
  <rect x="402" y="94" width="96" height="28" fill="#d4edda" rx="3"/>
  <text x="450" y="112" text-anchor="middle" font-family="Arial,sans-serif" font-size="10" fill="#1a1a1a">0%</text>
  <rect x="502" y="94" width="96" height="28" fill="#b22222" rx="3"/>
  <text x="550" y="112" text-anchor="middle" font-family="Arial,sans-serif" font-size="10" fill="#1a1a1a">100%</text>
  <rect x="602" y="94" width="96" height="28" fill="#b22222" rx="3"/>
  <text x="650" y="112" text-anchor="middle" font-family="Arial,sans-serif" font-size="10" fill="#1a1a1a">100%</text>
  <text x="194" y="144" text-anchor="end" font-family="Arial,sans-serif" font-size="10" fill="#1a1a1a">Validation</text>
  <rect x="202" y="126" width="96" height="28" fill="#70ad47" rx="3"/>
  <text x="250" y="144" text-anchor="middle" font-family="Arial,sans-serif" font-size="10" fill="#1a1a1a">37%</text>
  <rect x="302" y="126" width="96" height="28" fill="#70ad47" rx="3"/>
  <text x="350" y="144" text-anchor="middle" font-family="Arial,sans-serif" font-size="10" fill="#1a1a1a">35%</text>
  <rect x="402" y="126" width="96" height="28" fill="#d4edda" rx="3"/>
  <text x="450" y="144" text-anchor="middle" font-family="Arial,sans-serif" font-size="10" fill="#1a1a1a">0%</text>
  <rect x="502" y="126" width="96" height="28" fill="#f0c040" rx="3"/>
  <text x="550" y="144" text-anchor="middle" font-family="Arial,sans-serif" font-size="10" fill="#1a1a1a">50%</text>
  <rect x="602" y="126" width="96" height="28" fill="#b22222" rx="3"/>
  <text x="650" y="144" text-anchor="middle" font-family="Arial,sans-serif" font-size="10" fill="#1a1a1a">100%</text>
  <text x="194" y="176" text-anchor="end" font-family="Arial,sans-serif" font-size="10" fill="#1a1a1a">Invoice Intake</text>
  <rect x="202" y="158" width="96" height="28" fill="#70ad47" rx="3"/>
  <text x="250" y="176" text-anchor="middle" font-family="Arial,sans-serif" font-size="10" fill="#1a1a1a">36%</text>
  <rect x="302" y="158" width="96" height="28" fill="#d4edda" rx="3"/>
  <text x="350" y="176" text-anchor="middle" font-family="Arial,sans-serif" font-size="10" fill="#1a1a1a">18%</text>
  <rect x="402" y="158" width="96" height="28" fill="#d4edda" rx="3"/>
  <text x="450" y="176" text-anchor="middle" font-family="Arial,sans-serif" font-size="10" fill="#1a1a1a">0%</text>
  <rect x="502" y="158" width="96" height="28" fill="#e57c00" rx="3"/>
  <text x="550" y="176" text-anchor="middle" font-family="Arial,sans-serif" font-size="10" fill="#1a1a1a">75%</text>
  <rect x="602" y="158" width="96" height="28" fill="#b22222" rx="3"/>
  <text x="650" y="176" text-anchor="middle" font-family="Arial,sans-serif" font-size="10" fill="#1a1a1a">100%</text>
  <text x="194" y="208" text-anchor="end" font-family="Arial,sans-serif" font-size="10" fill="#1a1a1a">Exception: Missing PO</text>
  <rect x="202" y="190" width="96" height="28" fill="#70ad47" rx="3"/>
  <text x="250" y="208" text-anchor="middle" font-family="Arial,sans-serif" font-size="10" fill="#1a1a1a">35%</text>
  <rect x="302" y="190" width="96" height="28" fill="#e57c00" rx="3"/>
  <text x="350" y="208" text-anchor="middle" font-family="Arial,sans-serif" font-size="10" fill="#1a1a1a">62%</text>
  <rect x="402" y="190" width="96" height="28" fill="#d4edda" rx="3"/>
  <text x="450" y="208" text-anchor="middle" font-family="Arial,sans-serif" font-size="10" fill="#1a1a1a">0%</text>
  <rect x="502" y="190" width="96" height="28" fill="#d4edda" rx="3"/>
  <text x="550" y="208" text-anchor="middle" font-family="Arial,sans-serif" font-size="10" fill="#1a1a1a">0%</text>
  <rect x="602" y="190" width="96" height="28" fill="#b22222" rx="3"/>
  <text x="650" y="208" text-anchor="middle" font-family="Arial,sans-serif" font-size="10" fill="#1a1a1a">100%</text>
  <text x="194" y="240" text-anchor="end" font-family="Arial,sans-serif" font-size="10" fill="#1a1a1a">Exception: Vendor Data Issue</text>
  <rect x="202" y="222" width="96" height="28" fill="#70ad47" rx="3"/>
  <text x="250" y="240" text-anchor="middle" font-family="Arial,sans-serif" font-size="10" fill="#1a1a1a">29%</text>
  <rect x="302" y="222" width="96" height="28" fill="#f0c040" rx="3"/>
  <text x="350" y="240" text-anchor="middle" font-family="Arial,sans-serif" font-size="10" fill="#1a1a1a">46%</text>
  <rect x="402" y="222" width="96" height="28" fill="#d4edda" rx="3"/>
  <text x="450" y="240" text-anchor="middle" font-family="Arial,sans-serif" font-size="10" fill="#1a1a1a">0%</text>
  <rect x="502" y="222" width="96" height="28" fill="#d4edda" rx="3"/>
  <text x="550" y="240" text-anchor="middle" font-family="Arial,sans-serif" font-size="10" fill="#1a1a1a">0%</text>
  <rect x="602" y="222" width="96" height="28" fill="#b22222" rx="3"/>
  <text x="650" y="240" text-anchor="middle" font-family="Arial,sans-serif" font-size="10" fill="#1a1a1a">100%</text>
  <text x="194" y="272" text-anchor="end" font-family="Arial,sans-serif" font-size="10" fill="#1a1a1a">Approval</text>
  <rect x="202" y="254" width="96" height="28" fill="#70ad47" rx="3"/>
  <text x="250" y="272" text-anchor="middle" font-family="Arial,sans-serif" font-size="10" fill="#1a1a1a">26%</text>
  <rect x="302" y="254" width="96" height="28" fill="#70ad47" rx="3"/>
  <text x="350" y="272" text-anchor="middle" font-family="Arial,sans-serif" font-size="10" fill="#1a1a1a">23%</text>
  <rect x="402" y="254" width="96" height="28" fill="#d4edda" rx="3"/>
  <text x="450" y="272" text-anchor="middle" font-family="Arial,sans-serif" font-size="10" fill="#1a1a1a">0%</text>
  <rect x="502" y="254" width="96" height="28" fill="#70ad47" rx="3"/>
  <text x="550" y="272" text-anchor="middle" font-family="Arial,sans-serif" font-size="10" fill="#1a1a1a">25%</text>
  <rect x="602" y="254" width="96" height="28" fill="#b22222" rx="3"/>
  <text x="650" y="272" text-anchor="middle" font-family="Arial,sans-serif" font-size="10" fill="#1a1a1a">100%</text>
  <text x="194" y="304" text-anchor="end" font-family="Arial,sans-serif" font-size="10" fill="#1a1a1a">Payment Scheduling</text>
  <rect x="202" y="286" width="96" height="28" fill="#d4edda" rx="3"/>
  <text x="250" y="304" text-anchor="middle" font-family="Arial,sans-serif" font-size="10" fill="#1a1a1a">18%</text>
  <rect x="302" y="286" width="96" height="28" fill="#d4edda" rx="3"/>
  <text x="350" y="304" text-anchor="middle" font-family="Arial,sans-serif" font-size="10" fill="#1a1a1a">5%</text>
  <rect x="402" y="286" width="96" height="28" fill="#d4edda" rx="3"/>
  <text x="450" y="304" text-anchor="middle" font-family="Arial,sans-serif" font-size="10" fill="#1a1a1a">0%</text>
  <rect x="502" y="286" width="96" height="28" fill="#70ad47" rx="3"/>
  <text x="550" y="304" text-anchor="middle" font-family="Arial,sans-serif" font-size="10" fill="#1a1a1a">25%</text>
  <rect x="602" y="286" width="96" height="28" fill="#b22222" rx="3"/>
  <text x="650" y="304" text-anchor="middle" font-family="Arial,sans-serif" font-size="10" fill="#1a1a1a">100%</text>
  <text x="194" y="336" text-anchor="end" font-family="Arial,sans-serif" font-size="10" fill="#1a1a1a">Exception: Approval Delay</text>
  <rect x="202" y="318" width="96" height="28" fill="#d4edda" rx="3"/>
  <text x="250" y="336" text-anchor="middle" font-family="Arial,sans-serif" font-size="10" fill="#1a1a1a">12%</text>
  <rect x="302" y="318" width="96" height="28" fill="#d4edda" rx="3"/>
  <text x="350" y="336" text-anchor="middle" font-family="Arial,sans-serif" font-size="10" fill="#1a1a1a">5%</text>
  <rect x="402" y="318" width="96" height="28" fill="#d4edda" rx="3"/>
  <text x="450" y="336" text-anchor="middle" font-family="Arial,sans-serif" font-size="10" fill="#1a1a1a">0%</text>
  <rect x="502" y="318" width="96" height="28" fill="#d4edda" rx="3"/>
  <text x="550" y="336" text-anchor="middle" font-family="Arial,sans-serif" font-size="10" fill="#1a1a1a">0%</text>
  <rect x="602" y="318" width="96" height="28" fill="#b22222" rx="3"/>
  <text x="650" y="336" text-anchor="middle" font-family="Arial,sans-serif" font-size="10" fill="#1a1a1a">100%</text>
  <text x="200" y="360" font-family="Arial,sans-serif" font-size="9" fill="#666">Colors: critical ≥80% | high ≥60% | moderate ≥40% | low ≥20% | minimal</text>
</svg>